<svg width="16" height="16" viewBox="0 0 16 16" fill="none" xmlns="http://www.w3.org/2000/svg">
<path d="M8 1.1725C11.8675 1.1725 15 4.305 15 8.1725C14.999 11.18 13.0805 13.852 10.2315 14.8135C9.8815 14.8835 9.75 14.6645 9.75 14.481C9.75 14.2445 9.759 13.492 9.759 12.556C9.759 11.9 9.5405 11.48 9.2865 11.261C10.844 11.086 12.4805 10.491 12.4805 7.805C12.4805 7.035 12.209 6.4135 11.763 5.924C11.833 5.749 12.078 5.0315 11.693 4.069C11.693 4.069 11.1065 3.8765 9.768 4.7865C9.208 4.629 8.613 4.5505 8.018 4.5505C7.423 4.5505 6.828 4.629 6.268 4.7865C4.9295 3.8855 4.343 4.069 4.343 4.069C3.958 5.0315 4.203 5.749 4.273 5.924C3.827 6.414 3.5555 7.044 3.5555 7.805C3.5555 10.4825 5.183 11.0865 6.7405 11.2615C6.539 11.4365 6.3555 11.743 6.294 12.1975C5.8915 12.3815 4.885 12.679 4.2555 11.62C4.124 11.41 3.7305 10.894 3.1795 10.9025C2.593 10.9115 2.9435 11.235 3.188 11.366C3.4855 11.532 3.8265 12.1535 3.9055 12.355C4.0455 12.7485 4.5005 13.5015 6.259 13.1775C6.259 13.764 6.268 14.315 6.268 14.481C6.268 14.665 6.1365 14.8745 5.7865 14.8135C2.927 13.8615 0.998501 11.186 1 8.172C1 4.3045 4.1325 1.1725 8 1.1725Z" fill="#0B0C0E"/>
</svg>
