<svg width="1728" height="1117" viewBox="0 0 1728 1117" fill="none" xmlns="http://www.w3.org/2000/svg">
<g clip-path="url(#clip0_13117_4176)" filter="url(#filter0_gn_13117_4176)">
<g filter="url(#filter1_f_13117_4176)">
<path d="M420.417 -792.78L420.417 -277.589C420.417 -20.2166 629.058 188.425 886.43 188.425C1143.8 188.425 1352.44 -20.2162 1352.44 -277.588L1352.44 -792.779C1352.44 -1050.15 1143.8 -1258.79 886.43 -1258.79C629.058 -1258.79 420.417 -1050.15 420.417 -792.78Z" fill="#00A6B5" fill-opacity="0.12"/>
</g>
<g filter="url(#filter2_f_13117_4176)">
<path d="M431.39 913.516C299.681 1076.81 8.72639 1132.39 -120.287 1139.77L-4.75261 1167.69L1195.84 1201.39L1759.07 1158.06C1757.47 1120.52 1699.38 1043.3 1479.86 1034.83C1205.47 1024.24 1133.26 650.675 908.931 583.28C684.602 515.885 596.026 709.405 431.39 913.516Z" fill="#009EA6"/>
</g>
<g filter="url(#filter3_f_13117_4176)">
<path d="M1040.26 802.066C908.552 965.355 617.597 1020.94 488.584 1028.32L604.118 1056.24L1804.71 1089.94L2367.94 1046.61C2366.34 1009.06 2308.25 931.849 2088.73 923.377C1814.34 912.786 1742.13 539.225 1517.8 471.83C1293.47 404.435 1204.9 597.955 1040.26 802.066Z" fill="#001F23"/>
</g>
<g filter="url(#filter4_f_13117_4176)">
<path d="M193.231 796.732C61.5223 960.021 -229.432 1015.61 -358.446 1022.99L12.0902 1460.3L1212.68 1493.99L1775.91 1450.67C1774.31 1413.12 1711.75 853.539 1492.24 845.067C1217.84 834.476 1150.1 943.279 925.774 875.884C701.445 808.489 357.867 592.621 193.231 796.732Z" fill="#0C6671"/>
</g>
<g filter="url(#filter5_f_13117_4176)">
<path d="M-120.287 1230.23V141.384C36.1418 364.621 2.71835 872.258 124.135 983.075C275.905 1121.6 1333.27 1054.66 1572.66 1033.72C1764.17 1016.97 1583.87 694.218 1877.76 149.438V1230.23H-120.287Z" fill="#00151D"/>
</g>
<g filter="url(#filter6_f_13117_4176)">
<path d="M410.386 1091.13C248.792 1161.4 -108.183 1185.33 -266.471 1188.5L-124.72 1200.52L1348.3 1215.02L2039.33 1196.37C2037.36 1180.22 1966.09 1146.99 1696.77 1143.34C1360.11 1138.78 1271.52 978.02 996.287 949.016C721.055 920.013 612.38 1003.29 410.386 1091.13Z" fill="#4CFFD5"/>
</g>
<g filter="url(#filter7_f_13117_4176)">
<ellipse cx="893.067" cy="536.254" rx="251.82" ry="52.1267" transform="rotate(-9.83896 893.067 536.254)" fill="#18E299"/>
</g>
</g>
<defs>
<filter id="filter0_gn_13117_4176" x="-94.7" y="-51.6999" width="1895.4" height="1688.4" filterUnits="userSpaceOnUse" color-interpolation-filters="sRGB">
<feFlood flood-opacity="0" result="BackgroundImageFix"/>
<feBlend mode="normal" in="SourceGraphic" in2="BackgroundImageFix" result="shape"/>
<feTurbulence type="fractalNoise" baseFrequency="0.5 0.5" numOctaves="3" seed="4345" />
<feDisplacementMap in="shape" scale="103.40000152587891" xChannelSelector="R" yChannelSelector="G" result="displacedImage" width="100%" height="100%" />
<feMerge result="effect1_texture_13117_4176">
<feMergeNode in="displacedImage"/>
</feMerge>
<feTurbulence type="fractalNoise" baseFrequency="0.76923078298568726 0.76923078298568726" stitchTiles="stitch" numOctaves="3" result="noise" seed="5558" />
<feColorMatrix in="noise" type="luminanceToAlpha" result="alphaNoise" />
<feComponentTransfer in="alphaNoise" result="coloredNoise1">
<feFuncA type="discrete" tableValues="0 0 0 0 0 0 0 0 0 0 0 0 0 1 1 1 1 1 1 1 1 1 1 1 1 1 1 1 1 1 1 1 1 1 1 1 1 0 0 0 0 0 0 0 0 0 0 0 0 0 0 0 0 0 0 0 0 0 0 0 0 0 0 0 0 0 0 0 0 0 0 0 0 0 0 0 0 0 0 0 0 0 0 0 0 0 0 0 0 0 0 0 0 0 0 0 0 0 0 0 "/>
</feComponentTransfer>
<feComposite operator="in" in2="effect1_texture_13117_4176" in="coloredNoise1" result="noise1Clipped" />
<feFlood flood-color="rgba(0, 106, 16, 0.25)" result="color1Flood" />
<feComposite operator="in" in2="noise1Clipped" in="color1Flood" result="color1" />
<feMerge result="effect2_noise_13117_4176">
<feMergeNode in="effect1_texture_13117_4176" />
<feMergeNode in="color1" />
</feMerge>
</filter>
<filter id="filter1_f_13117_4176" x="200.416" y="-1478.79" width="1372.03" height="1887.22" filterUnits="userSpaceOnUse" color-interpolation-filters="sRGB">
<feFlood flood-opacity="0" result="BackgroundImageFix"/>
<feBlend mode="normal" in="SourceGraphic" in2="BackgroundImageFix" result="shape"/>
<feGaussianBlur stdDeviation="110" result="effect1_foregroundBlur_13117_4176"/>
</filter>
<filter id="filter2_f_13117_4176" x="-461.987" y="227.928" width="2562.76" height="1315.16" filterUnits="userSpaceOnUse" color-interpolation-filters="sRGB">
<feFlood flood-opacity="0" result="BackgroundImageFix"/>
<feBlend mode="normal" in="SourceGraphic" in2="BackgroundImageFix" result="shape"/>
<feGaussianBlur stdDeviation="170.85" result="effect1_foregroundBlur_13117_4176"/>
</filter>
<filter id="filter3_f_13117_4176" x="215.784" y="185.377" width="2424.96" height="1177.36" filterUnits="userSpaceOnUse" color-interpolation-filters="sRGB">
<feFlood flood-opacity="0" result="BackgroundImageFix"/>
<feBlend mode="normal" in="SourceGraphic" in2="BackgroundImageFix" result="shape"/>
<feGaussianBlur stdDeviation="136.4" result="effect1_foregroundBlur_13117_4176"/>
</filter>
<filter id="filter4_f_13117_4176" x="-513.745" y="555.746" width="2444.96" height="1093.55" filterUnits="userSpaceOnUse" color-interpolation-filters="sRGB">
<feFlood flood-opacity="0" result="BackgroundImageFix"/>
<feBlend mode="normal" in="SourceGraphic" in2="BackgroundImageFix" result="shape"/>
<feGaussianBlur stdDeviation="77.65" result="effect1_foregroundBlur_13117_4176"/>
</filter>
<filter id="filter5_f_13117_4176" x="-273.087" y="-11.4158" width="2303.65" height="1394.44" filterUnits="userSpaceOnUse" color-interpolation-filters="sRGB">
<feFlood flood-opacity="0" result="BackgroundImageFix"/>
<feBlend mode="normal" in="SourceGraphic" in2="BackgroundImageFix" result="shape"/>
<feGaussianBlur stdDeviation="76.4" result="effect1_foregroundBlur_13117_4176"/>
</filter>
<filter id="filter6_f_13117_4176" x="-527.371" y="682.241" width="2827.6" height="793.679" filterUnits="userSpaceOnUse" color-interpolation-filters="sRGB">
<feFlood flood-opacity="0" result="BackgroundImageFix"/>
<feBlend mode="normal" in="SourceGraphic" in2="BackgroundImageFix" result="shape"/>
<feGaussianBlur stdDeviation="130.45" result="effect1_foregroundBlur_13117_4176"/>
</filter>
<filter id="filter7_f_13117_4176" x="244.787" y="69.2482" width="1296.56" height="934.011" filterUnits="userSpaceOnUse" color-interpolation-filters="sRGB">
<feFlood flood-opacity="0" result="BackgroundImageFix"/>
<feBlend mode="normal" in="SourceGraphic" in2="BackgroundImageFix" result="shape"/>
<feGaussianBlur stdDeviation="200" result="effect1_foregroundBlur_13117_4176"/>
</filter>
<clipPath id="clip0_13117_4176">
<rect width="1792" height="1585" fill="white" transform="translate(1749 1585) rotate(-180)"/>
</clipPath>
</defs>
</svg>
